<svg width="552" height="555" xmlns="http://www.w3.org/2000/svg" xmlns:xlink="http://www.w3.org/1999/xlink"><defs><path id="a" d="M.003 0h144.26v62.08H.003z"/><path id="c" d="M0 .214h126.151V110H0z"/><path id="e" d="M.001 0h64.917v27.936H.001z"/><path id="g" d="M0 .096h56.768V49.5H0z"/><filter x="-17.6%" y="-17.6%" width="135.3%" height="135.3%" filterUnits="objectBoundingBox" id="i"><feGaussianBlur stdDeviation="29" in="SourceGraphic"/></filter><filter x="-13.3%" y="-13.3%" width="126.7%" height="126.7%" filterUnits="objectBoundingBox" id="j"><feGaussianBlur stdDeviation="2" in="SourceGraphic"/></filter></defs><g transform="translate(-5 31)" fill="none" fill-rule="evenodd"><path d="M204.924 202.76c-.187.288-.44.532-.76.736L164.279 229l-56.376 85.21 39.885-25.504c.05-.034.105-.065.15-.102a2.72 2.72 0 00.32-.273c.1-.109.193-.216.272-.333l.016-.023 56.378-85.214z" fill="#E93B22"/><g transform="rotate(34 -135.896 207.041)"><mask id="b" fill="#fff"><use xlink:href="#a"/></mask><path d="M139.165 8.588c3.763 1.21 5.8 3.24 4.877 5.355l-18.804 43.448c-1.322 3.049-8.24 5.107-15.469 4.618L.003 54.466 23.572-.001 133.31 7.53c2.216.152 4.202.529 5.855 1.057" fill="#FC6A55" mask="url(#b)"/></g><g transform="rotate(34 -224.618 179.916)"><mask id="d" fill="#fff"><use xlink:href="#c"/></mask><path d="M125.24 3.14c-.157.37-.41.73-.731 1.068-.017.022-.04.04-.056.056a6.682 6.682 0 01-1.103.894c-.05.034-.096.068-.14.096a11.89 11.89 0 01-2.11 1.024c-.32.124-.641.242-.984.354a22.3 22.3 0 01-2.256.596c-.112.023-.208.051-.315.074-.163.033-.349.056-.512.078-.602.107-1.22.208-1.856.276-.113.011-.22.017-.332.028a29.99 29.99 0 01-2.29.135c-.067.006-.134.006-.202.006-.85.01-1.715-.006-2.582-.068L0 .214l.906 102.167 109.778 7.549a44.907 44.907 0 001.136.056c.326.011.652.017.984.017.152 0 .304-.006.456-.011h.208c.13-.006.253-.006.377-.006.382-.017.765-.034 1.142-.062.264-.017.517-.045.765-.073.118-.006.23-.017.337-.028.096-.011.186-.017.281-.028.546-.062 1.058-.152 1.575-.242.164-.028.344-.05.507-.079.022-.006.045-.006.062-.011.09-.017.168-.045.258-.068a23.35 23.35 0 002.25-.59c.102-.034.214-.05.31-.085.247-.084.455-.185.686-.275.264-.102.523-.203.765-.31.079-.04.18-.073.259-.112.32-.152.63-.315.91-.484.057-.04.108-.079.17-.112.05-.034.09-.068.14-.102.113-.073.23-.14.338-.22.174-.134.337-.263.495-.404.095-.084.185-.18.27-.27l.05-.05c.023-.023.051-.046.074-.068a5.59 5.59 0 00.309-.388c.09-.124.174-.253.247-.388.034-.08.074-.152.107-.231l-.91-102.167z" fill="#FF5A42" mask="url(#d)"/></g><path d="M368.559 380.34c.067.14.103.293.107.464l.594 21.296 19.801 41.494-.593-21.296c-.002-.027-.001-.055-.005-.081a1.224 1.224 0 00-.031-.187 1.265 1.265 0 00-.065-.182l-.006-.011-19.802-41.497z" fill="#4D3DFC"/><g transform="rotate(-25 1061.44 -491.742)"><mask id="f" fill="#fff"><use xlink:href="#e"/></mask><path d="M62.624 3.865c1.694.544 2.61 1.458 2.195 2.41l-8.462 19.55c-.595 1.373-3.708 2.3-6.96 2.079L0 24.51 10.607 0 59.99 3.388c.998.068 1.891.238 2.635.476" fill="#675BF5" mask="url(#f)"/></g><g transform="rotate(-25 1116.499 -503.948)"><mask id="h" fill="#fff"><use xlink:href="#g"/></mask><path d="M56.358 1.413c-.07.167-.185.329-.329.48-.008.01-.018.018-.025.026a3.009 3.009 0 01-.496.402l-.064.043a5.35 5.35 0 01-.949.461 9.018 9.018 0 01-.443.16c-.319.103-.658.192-1.015.268-.05.01-.094.023-.142.033-.073.015-.157.025-.23.035-.27.048-.55.094-.835.124l-.15.013c-.334.033-.678.053-1.03.06-.03.003-.06.003-.091.003-.382.005-.772-.002-1.162-.03L0 .096l.407 45.975 49.4 3.397c.028 0 .056.003.081.005a12.817 12.817 0 00.873.028c.069 0 .137-.002.205-.005h.094c.058-.002.114-.002.17-.002.172-.008.344-.016.514-.028a7.05 7.05 0 00.344-.033 2.63 2.63 0 00.152-.013l.126-.012c.246-.028.476-.069.709-.11.073-.012.154-.022.228-.035.01-.002.02-.002.028-.005.04-.007.076-.02.116-.03.357-.076.696-.165 1.013-.266.045-.015.096-.023.139-.038.111-.038.205-.083.309-.124.119-.045.235-.091.344-.14.035-.017.08-.032.116-.05.145-.068.284-.141.41-.217.026-.018.048-.036.076-.051.023-.015.04-.03.064-.046.05-.033.103-.063.151-.098a4.08 4.08 0 00.223-.183c.043-.038.084-.08.122-.121l.022-.023.033-.03c.048-.056.097-.114.14-.175a1.57 1.57 0 00.111-.175c.015-.035.033-.068.048-.103l-.41-45.975z" fill="#4537E2" mask="url(#h)"/></g><circle fill="#4537E2" filter="url(#i)" cx="723.5" cy="246.5" r="246.5"/><circle fill="#4537E2" filter="url(#j)" cx="434.5" cy="133.5" r="22.5"/></g></svg>