<svg width="218" height="302" xmlns="http://www.w3.org/2000/svg"><defs><linearGradient x1="61.994%" y1="0%" x2="37.507%" y2="64.687%" id="a"><stop stop-color="#7B68F3" offset="0%"/><stop stop-color="#4537E2" offset="100%"/></linearGradient><linearGradient x1="54.015%" y1="113.156%" x2="21.119%" y2="-30.223%" id="b"><stop stop-color="#4537E2" offset="0%"/><stop stop-color="#DBF0FC" offset="100%"/></linearGradient><linearGradient x1="28.622%" y1="10.314%" x2="56.322%" y2="50%" id="c"><stop stop-color="#FFDC3E" offset="0%"/><stop stop-color="#FDB71D" offset="100%"/></linearGradient></defs><g transform="translate(-75 -4)" fill="none" fill-rule="evenodd"><path d="M177.008 224.13l-1.278-4.696a167.37 167.37 0 01-1.085-4.05c-.426-1.656-.707-2.843-.842-3.56-.121.665-.361 1.76-.72 3.286-.358 1.526-1.153 4.533-2.383 9.02h6.308zm25.678 1.292v10.409h-8.012v-28.606h9.716c8.06 0 12.089 2.818 12.089 8.453 0 3.313-1.677 5.876-5.03 7.69l8.64 12.463h-9.087l-6.287-10.41h-2.029zm0-5.811h1.501c2.8 0 4.199-1.194 4.199-3.581 0-1.97-1.373-2.955-4.118-2.955h-1.582v6.536z" fill="#988EFB"/><path fill="#FF687B" d="M242.968 235.83h-17.606v-28.605h17.606v6.203h-9.594v4.5h8.884v6.202h-8.884v5.4h9.594z"/><path fill="#C0D8F2" d="M180.132 235.83l-1.46-5.36h-9.635l-1.501 5.36h-8.803l9.675-28.722h10.69l9.796 28.723z"/><path d="M145.61 213.154c-1.907 0-3.394.753-4.462 2.26-1.069 1.506-1.603 3.583-1.603 6.231 0 5.505 2.17 8.257 6.511 8.257a13.79 13.79 0 003.813-.528 39.087 39.087 0 003.712-1.272v6.535c-2.474 1.057-5.273 1.585-8.397 1.585-4.476 0-7.907-1.252-10.294-3.757-2.386-2.504-3.58-6.124-3.58-10.859 0-2.96.578-5.563 1.734-7.807 1.157-2.243 2.82-3.968 4.99-5.175 2.17-1.206 4.723-1.81 7.657-1.81 3.205 0 6.268.672 9.188 2.016l-2.454 6.085a28.203 28.203 0 00-3.286-1.253c-1.095-.339-2.271-.508-3.529-.508z" fill="#F8E71C"/><path d="M125.246 227.143c0 1.774-.466 3.35-1.4 4.726-.933 1.376-2.278 2.445-4.036 3.208-1.758.764-3.82 1.145-6.186 1.145-1.975 0-3.631-.134-4.97-.401-1.338-.267-2.731-.734-4.178-1.399v-6.887a24.4 24.4 0 004.767 1.77c1.65.424 3.164.636 4.543.636 1.19 0 2.062-.199 2.617-.596.554-.398.831-.91.831-1.536a1.65 1.65 0 00-.335-1.028c-.223-.293-.581-.59-1.075-.89-.493-.3-1.808-.913-3.945-1.839-1.933-.848-3.384-1.67-4.35-2.465-.967-.796-1.684-1.71-2.15-2.74-.467-1.03-.7-2.25-.7-3.658 0-2.635.994-4.69 2.981-6.164 1.988-1.474 4.72-2.21 8.195-2.21 3.07 0 6.2.684 9.391 2.054l-2.454 5.967c-2.772-1.226-5.166-1.839-7.18-1.839-1.042 0-1.799.176-2.272.528-.474.353-.71.79-.71 1.311 0 .561.3 1.064.902 1.507.602.443 2.235 1.252 4.899 2.426 2.556 1.109 4.33 2.3 5.324 3.571.994 1.272 1.491 2.873 1.491 4.803z" fill="#FFCCD2"/><path d="M97.966 220.921c0 4.775-1.363 8.453-4.088 11.036-2.724 2.582-6.554 3.874-11.49 3.874h-9.594v-28.606h10.263c4.76 0 8.435 1.174 11.024 3.522 2.59 2.348 3.885 5.74 3.885 10.174z" fill="#6DCFF6"/><path d="M227.214 128.293c1.379 78.988-87.52 119.846-57.721 132.59 29.799 12.745 127.71-76.464 140.481-152.93 12.771-76.464-16.5-92.855-45.468-84.337-28.969 8.517-38.67 25.689-37.292 104.677z" fill="url(#a)" transform="scale(1 -1) rotate(-36 -198.337 0)"/><circle fill="url(#b)" cx="138.708" cy="167.527" r="138.33"/><path d="M214.468 136.864c-2.415 7.222-10.217 11.44-17.972 9.506-7.754-1.933-12.662-9.32-11.405-16.83z" fill="#FF687B"/><circle fill="#3A4358" cx="230.352" cy="121.352" r="8.352"/><circle fill="#3A4358" cx="176.352" cy="104.352" r="8.352"/><path d="M159.19 43.621l5.141-31.97a3.132 3.132 0 015.64-1.324l4.585 6.413a3.132 3.132 0 004.477.646l13.255-10.361a3.132 3.132 0 014.949 1.637l4.024 14.631a3.132 3.132 0 003.679 2.231l8.163-1.755a3.132 3.132 0 013.433 4.516l-15.434 29.43c-8.047-.78-15.537-2.335-22.47-4.666a84.278 84.278 0 01-19.443-9.428z" fill="url(#c)" transform="rotate(-7 187.9 32.137)"/></g></svg>