<?xml version="1.0" encoding="UTF-8"?>
<svg width="133px" height="98px" viewBox="0 0 133 98" version="1.1" xmlns="http://www.w3.org/2000/svg" xmlns:xlink="http://www.w3.org/1999/xlink">
    <!-- Generator: sketchtool 61.2 (101010) - https://sketch.com -->
    <title>0B2EE245-D8A0-4040-8CEE-78AA7CC96318</title>
    <desc>Created with sketchtool.</desc>
    <g id="Page-1" stroke="none" stroke-width="1" fill="none" fill-rule="evenodd">
        <g id="Draft-Rev-1" transform="translate(-1307.000000, -2838.000000)" fill="#DBF0FC">
            <g id="Section-4---Our-Partners" transform="translate(165.000000, 2344.000000)">
                <path d="M1272,584 C1274.20914,584 1276,585.790861 1276,588 C1276,590.209139 1274.20914,592 1272,592 C1269.79086,592 1268,590.209139 1268,588 C1268,585.790861 1269.79086,584 1272,584 Z M1254,584 C1256.20914,584 1258,585.790861 1258,588 C1258,590.209139 1256.20914,592 1254,592 C1251.79086,592 1250,590.209139 1250,588 C1250,585.790861 1251.79086,584 1254,584 Z M1236,584 C1238.20914,584 1240,585.790861 1240,588 C1240,590.209139 1238.20914,592 1236,592 C1233.79086,592 1232,590.209139 1232,588 C1232,585.790861 1233.79086,584 1236,584 Z M1218,584 C1220.20914,584 1222,585.790861 1222,588 C1222,590.209139 1220.20914,592 1218,592 C1215.79086,592 1214,590.209139 1214,588 C1214,585.790861 1215.79086,584 1218,584 Z M1200,584 C1202.20914,584 1204,585.790861 1204,588 C1204,590.209139 1202.20914,592 1200,592 C1197.79086,592 1196,590.209139 1196,588 C1196,585.790861 1197.79086,584 1200,584 Z M1182,584 C1184.20914,584 1186,585.790861 1186,588 C1186,590.209139 1184.20914,592 1182,592 C1179.79086,592 1178,590.209139 1178,588 C1178,585.790861 1179.79086,584 1182,584 Z M1164,584 C1166.20914,584 1168,585.790861 1168,588 C1168,590.209139 1166.20914,592 1164,592 C1161.79086,592 1160,590.209139 1160,588 C1160,585.790861 1161.79086,584 1164,584 Z M1146,584 C1148.20914,584 1150,585.790861 1150,588 C1150,590.209139 1148.20914,592 1146,592 C1143.79086,592 1142,590.209139 1142,588 C1142,585.790861 1143.79086,584 1146,584 Z M1272,566 C1274.20914,566 1276,567.790861 1276,570 C1276,572.209139 1274.20914,574 1272,574 C1269.79086,574 1268,572.209139 1268,570 C1268,567.790861 1269.79086,566 1272,566 Z M1254,566 C1256.20914,566 1258,567.790861 1258,570 C1258,572.209139 1256.20914,574 1254,574 C1251.79086,574 1250,572.209139 1250,570 C1250,567.790861 1251.79086,566 1254,566 Z M1236,566 C1238.20914,566 1240,567.790861 1240,570 C1240,572.209139 1238.20914,574 1236,574 C1233.79086,574 1232,572.209139 1232,570 C1232,567.790861 1233.79086,566 1236,566 Z M1218,566 C1220.20914,566 1222,567.790861 1222,570 C1222,572.209139 1220.20914,574 1218,574 C1215.79086,574 1214,572.209139 1214,570 C1214,567.790861 1215.79086,566 1218,566 Z M1200,566 C1202.20914,566 1204,567.790861 1204,570 C1204,572.209139 1202.20914,574 1200,574 C1197.79086,574 1196,572.209139 1196,570 C1196,567.790861 1197.79086,566 1200,566 Z M1182,566 C1184.20914,566 1186,567.790861 1186,570 C1186,572.209139 1184.20914,574 1182,574 C1179.79086,574 1178,572.209139 1178,570 C1178,567.790861 1179.79086,566 1182,566 Z M1164,566 C1166.20914,566 1168,567.790861 1168,570 C1168,572.209139 1166.20914,574 1164,574 C1161.79086,574 1160,572.209139 1160,570 C1160,567.790861 1161.79086,566 1164,566 Z M1146,566 C1148.20914,566 1150,567.790861 1150,570 C1150,572.209139 1148.20914,574 1146,574 C1143.79086,574 1142,572.209139 1142,570 C1142,567.790861 1143.79086,566 1146,566 Z M1254,548 C1256.20914,548 1258,549.790861 1258,552 C1258,554.209139 1256.20914,556 1254,556 C1251.79086,556 1250,554.209139 1250,552 C1250,549.790861 1251.79086,548 1254,548 Z M1236,548 C1238.20914,548 1240,549.790861 1240,552 C1240,554.209139 1238.20914,556 1236,556 C1233.79086,556 1232,554.209139 1232,552 C1232,549.790861 1233.79086,548 1236,548 Z M1218,548 C1220.20914,548 1222,549.790861 1222,552 C1222,554.209139 1220.20914,556 1218,556 C1215.79086,556 1214,554.209139 1214,552 C1214,549.790861 1215.79086,548 1218,548 Z M1200,548 C1202.20914,548 1204,549.790861 1204,552 C1204,554.209139 1202.20914,556 1200,556 C1197.79086,556 1196,554.209139 1196,552 C1196,549.790861 1197.79086,548 1200,548 Z M1182,548 C1184.20914,548 1186,549.790861 1186,552 C1186,554.209139 1184.20914,556 1182,556 C1179.79086,556 1178,554.209139 1178,552 C1178,549.790861 1179.79086,548 1182,548 Z M1164,548 C1166.20914,548 1168,549.790861 1168,552 C1168,554.209139 1166.20914,556 1164,556 C1161.79086,556 1160,554.209139 1160,552 C1160,549.790861 1161.79086,548 1164,548 Z M1146,548 C1148.20914,548 1150,549.790861 1150,552 C1150,554.209139 1148.20914,556 1146,556 C1143.79086,556 1142,554.209139 1142,552 C1142,549.790861 1143.79086,548 1146,548 Z M1272,548 C1274.20914,548 1276,549.790861 1276,552 C1276,554.209139 1274.20914,556 1272,556 C1269.79086,556 1268,554.209139 1268,552 C1268,549.790861 1269.79086,548 1272,548 Z M1272,530 C1274.20914,530 1276,531.790861 1276,534 C1276,536.209139 1274.20914,538 1272,538 C1269.79086,538 1268,536.209139 1268,534 C1268,531.790861 1269.79086,530 1272,530 Z M1254,530 C1256.20914,530 1258,531.790861 1258,534 C1258,536.209139 1256.20914,538 1254,538 C1251.79086,538 1250,536.209139 1250,534 C1250,531.790861 1251.79086,530 1254,530 Z M1236,530 C1238.20914,530 1240,531.790861 1240,534 C1240,536.209139 1238.20914,538 1236,538 C1233.79086,538 1232,536.209139 1232,534 C1232,531.790861 1233.79086,530 1236,530 Z M1218,530 C1220.20914,530 1222,531.790861 1222,534 C1222,536.209139 1220.20914,538 1218,538 C1215.79086,538 1214,536.209139 1214,534 C1214,531.790861 1215.79086,530 1218,530 Z M1200,530 C1202.20914,530 1204,531.790861 1204,534 C1204,536.209139 1202.20914,538 1200,538 C1197.79086,538 1196,536.209139 1196,534 C1196,531.790861 1197.79086,530 1200,530 Z M1182,530 C1184.20914,530 1186,531.790861 1186,534 C1186,536.209139 1184.20914,538 1182,538 C1179.79086,538 1178,536.209139 1178,534 C1178,531.790861 1179.79086,530 1182,530 Z M1164,530 C1166.20914,530 1168,531.790861 1168,534 C1168,536.209139 1166.20914,538 1164,538 C1161.79086,538 1160,536.209139 1160,534 C1160,531.790861 1161.79086,530 1164,530 Z M1146,530 C1148.20914,530 1150,531.790861 1150,534 C1150,536.209139 1148.20914,538 1146,538 C1143.79086,538 1142,536.209139 1142,534 C1142,531.790861 1143.79086,530 1146,530 Z M1218,512 C1220.20914,512 1222,513.790861 1222,516 C1222,518.209139 1220.20914,520 1218,520 C1215.79086,520 1214,518.209139 1214,516 C1214,513.790861 1215.79086,512 1218,512 Z M1164,512 C1166.20914,512 1168,513.790861 1168,516 C1168,518.209139 1166.20914,520 1164,520 C1161.79086,520 1160,518.209139 1160,516 C1160,513.790861 1161.79086,512 1164,512 Z M1182,512 C1184.20914,512 1186,513.790861 1186,516 C1186,518.209139 1184.20914,520 1182,520 C1179.79086,520 1178,518.209139 1178,516 C1178,513.790861 1179.79086,512 1182,512 Z M1200,512 C1202.20914,512 1204,513.790861 1204,516 C1204,518.209139 1202.20914,520 1200,520 C1197.79086,520 1196,518.209139 1196,516 C1196,513.790861 1197.79086,512 1200,512 Z M1254,512 C1256.20914,512 1258,513.790861 1258,516 C1258,518.209139 1256.20914,520 1254,520 C1251.79086,520 1250,518.209139 1250,516 C1250,513.790861 1251.79086,512 1254,512 Z M1272,512 C1274.20914,512 1276,513.790861 1276,516 C1276,518.209139 1274.20914,520 1272,520 C1269.79086,520 1268,518.209139 1268,516 C1268,513.790861 1269.79086,512 1272,512 Z M1146,512 C1148.20914,512 1150,513.790861 1150,516 C1150,518.209139 1148.20914,520 1146,520 C1143.79086,520 1142,518.209139 1142,516 C1142,513.790861 1143.79086,512 1146,512 Z M1236,512 C1238.20914,512 1240,513.790861 1240,516 C1240,518.209139 1238.20914,520 1236,520 C1233.79086,520 1232,518.209139 1232,516 C1232,513.790861 1233.79086,512 1236,512 Z M1200,494 C1202.20914,494 1204,495.790861 1204,498 C1204,500.209139 1202.20914,502 1200,502 C1197.79086,502 1196,500.209139 1196,498 C1196,495.790861 1197.79086,494 1200,494 Z M1218,494 C1220.20914,494 1222,495.790861 1222,498 C1222,500.209139 1220.20914,502 1218,502 C1215.79086,502 1214,500.209139 1214,498 C1214,495.790861 1215.79086,494 1218,494 Z M1236,494 C1238.20914,494 1240,495.790861 1240,498 C1240,500.209139 1238.20914,502 1236,502 C1233.79086,502 1232,500.209139 1232,498 C1232,495.790861 1233.79086,494 1236,494 Z M1254,494 C1256.20914,494 1258,495.790861 1258,498 C1258,500.209139 1256.20914,502 1254,502 C1251.79086,502 1250,500.209139 1250,498 C1250,495.790861 1251.79086,494 1254,494 Z M1272,494 C1274.20914,494 1276,495.790861 1276,498 C1276,500.209139 1274.20914,502 1272,502 C1269.79086,502 1268,500.209139 1268,498 C1268,495.790861 1269.79086,494 1272,494 Z M1146,494 C1148.20914,494 1150,495.790861 1150,498 C1150,500.209139 1148.20914,502 1146,502 C1143.79086,502 1142,500.209139 1142,498 C1142,495.790861 1143.79086,494 1146,494 Z M1164,494 C1166.20914,494 1168,495.790861 1168,498 C1168,500.209139 1166.20914,502 1164,502 C1161.79086,502 1160,500.209139 1160,498 C1160,495.790861 1161.79086,494 1164,494 Z M1182,494 C1184.20914,494 1186,495.790861 1186,498 C1186,500.209139 1184.20914,502 1182,502 C1179.79086,502 1178,500.209139 1178,498 C1178,495.790861 1179.79086,494 1182,494 Z" id="Combined-Shape"></path>
            </g>
        </g>
    </g>
</svg>