<?xml version="1.0" encoding="UTF-8"?>
<svg width="134px" height="98px" viewBox="0 0 134 98" version="1.1" xmlns="http://www.w3.org/2000/svg" xmlns:xlink="http://www.w3.org/1999/xlink">
    <!-- Generator: sketchtool 61.2 (101010) - https://sketch.com -->
    <title>4EC9114A-FBFC-409E-8D82-6D12F617A443</title>
    <desc>Created with sketchtool.</desc>
    <g id="Page-1" stroke="none" stroke-width="1" fill="none" fill-rule="evenodd">
        <g id="Draft-Rev-1" transform="translate(-1191.000000, -4407.000000)" fill="#DBF0FC">
            <g id="Section-6---Untuk-Perusahaan" transform="translate(-3.000000, 3840.000000)">
                <path d="M1324,657 C1326.20914,657 1328,658.790861 1328,661 C1328,663.209139 1326.20914,665 1324,665 C1321.79086,665 1320,663.209139 1320,661 C1320,658.790861 1321.79086,657 1324,657 Z M1306,657 C1308.20914,657 1310,658.790861 1310,661 C1310,663.209139 1308.20914,665 1306,665 C1303.79086,665 1302,663.209139 1302,661 C1302,658.790861 1303.79086,657 1306,657 Z M1288,657 C1290.20914,657 1292,658.790861 1292,661 C1292,663.209139 1290.20914,665 1288,665 C1285.79086,665 1284,663.209139 1284,661 C1284,658.790861 1285.79086,657 1288,657 Z M1270,657 C1272.20914,657 1274,658.790861 1274,661 C1274,663.209139 1272.20914,665 1270,665 C1267.79086,665 1266,663.209139 1266,661 C1266,658.790861 1267.79086,657 1270,657 Z M1252,657 C1254.20914,657 1256,658.790861 1256,661 C1256,663.209139 1254.20914,665 1252,665 C1249.79086,665 1248,663.209139 1248,661 C1248,658.790861 1249.79086,657 1252,657 Z M1234,657 C1236.20914,657 1238,658.790861 1238,661 C1238,663.209139 1236.20914,665 1234,665 C1231.79086,665 1230,663.209139 1230,661 C1230,658.790861 1231.79086,657 1234,657 Z M1216,657 C1218.20914,657 1220,658.790861 1220,661 C1220,663.209139 1218.20914,665 1216,665 C1213.79086,665 1212,663.209139 1212,661 C1212,658.790861 1213.79086,657 1216,657 Z M1198,657 C1200.20914,657 1202,658.790861 1202,661 C1202,663.209139 1200.20914,665 1198,665 C1195.79086,665 1194,663.209139 1194,661 C1194,658.790861 1195.79086,657 1198,657 Z M1324,639 C1326.20914,639 1328,640.790861 1328,643 C1328,645.209139 1326.20914,647 1324,647 C1321.79086,647 1320,645.209139 1320,643 C1320,640.790861 1321.79086,639 1324,639 Z M1306,639 C1308.20914,639 1310,640.790861 1310,643 C1310,645.209139 1308.20914,647 1306,647 C1303.79086,647 1302,645.209139 1302,643 C1302,640.790861 1303.79086,639 1306,639 Z M1288,639 C1290.20914,639 1292,640.790861 1292,643 C1292,645.209139 1290.20914,647 1288,647 C1285.79086,647 1284,645.209139 1284,643 C1284,640.790861 1285.79086,639 1288,639 Z M1270,639 C1272.20914,639 1274,640.790861 1274,643 C1274,645.209139 1272.20914,647 1270,647 C1267.79086,647 1266,645.209139 1266,643 C1266,640.790861 1267.79086,639 1270,639 Z M1252,639 C1254.20914,639 1256,640.790861 1256,643 C1256,645.209139 1254.20914,647 1252,647 C1249.79086,647 1248,645.209139 1248,643 C1248,640.790861 1249.79086,639 1252,639 Z M1234,639 C1236.20914,639 1238,640.790861 1238,643 C1238,645.209139 1236.20914,647 1234,647 C1231.79086,647 1230,645.209139 1230,643 C1230,640.790861 1231.79086,639 1234,639 Z M1216,639 C1218.20914,639 1220,640.790861 1220,643 C1220,645.209139 1218.20914,647 1216,647 C1213.79086,647 1212,645.209139 1212,643 C1212,640.790861 1213.79086,639 1216,639 Z M1198,639 C1200.20914,639 1202,640.790861 1202,643 C1202,645.209139 1200.20914,647 1198,647 C1195.79086,647 1194,645.209139 1194,643 C1194,640.790861 1195.79086,639 1198,639 Z M1306,621 C1308.20914,621 1310,622.790861 1310,625 C1310,627.209139 1308.20914,629 1306,629 C1303.79086,629 1302,627.209139 1302,625 C1302,622.790861 1303.79086,621 1306,621 Z M1288,621 C1290.20914,621 1292,622.790861 1292,625 C1292,627.209139 1290.20914,629 1288,629 C1285.79086,629 1284,627.209139 1284,625 C1284,622.790861 1285.79086,621 1288,621 Z M1270,621 C1272.20914,621 1274,622.790861 1274,625 C1274,627.209139 1272.20914,629 1270,629 C1267.79086,629 1266,627.209139 1266,625 C1266,622.790861 1267.79086,621 1270,621 Z M1252,621 C1254.20914,621 1256,622.790861 1256,625 C1256,627.209139 1254.20914,629 1252,629 C1249.79086,629 1248,627.209139 1248,625 C1248,622.790861 1249.79086,621 1252,621 Z M1234,621 C1236.20914,621 1238,622.790861 1238,625 C1238,627.209139 1236.20914,629 1234,629 C1231.79086,629 1230,627.209139 1230,625 C1230,622.790861 1231.79086,621 1234,621 Z M1216,621 C1218.20914,621 1220,622.790861 1220,625 C1220,627.209139 1218.20914,629 1216,629 C1213.79086,629 1212,627.209139 1212,625 C1212,622.790861 1213.79086,621 1216,621 Z M1198,621 C1200.20914,621 1202,622.790861 1202,625 C1202,627.209139 1200.20914,629 1198,629 C1195.79086,629 1194,627.209139 1194,625 C1194,622.790861 1195.79086,621 1198,621 Z M1324,621 C1326.20914,621 1328,622.790861 1328,625 C1328,627.209139 1326.20914,629 1324,629 C1321.79086,629 1320,627.209139 1320,625 C1320,622.790861 1321.79086,621 1324,621 Z M1324,603 C1326.20914,603 1328,604.790861 1328,607 C1328,609.209139 1326.20914,611 1324,611 C1321.79086,611 1320,609.209139 1320,607 C1320,604.790861 1321.79086,603 1324,603 Z M1306,603 C1308.20914,603 1310,604.790861 1310,607 C1310,609.209139 1308.20914,611 1306,611 C1303.79086,611 1302,609.209139 1302,607 C1302,604.790861 1303.79086,603 1306,603 Z M1288,603 C1290.20914,603 1292,604.790861 1292,607 C1292,609.209139 1290.20914,611 1288,611 C1285.79086,611 1284,609.209139 1284,607 C1284,604.790861 1285.79086,603 1288,603 Z M1270,603 C1272.20914,603 1274,604.790861 1274,607 C1274,609.209139 1272.20914,611 1270,611 C1267.79086,611 1266,609.209139 1266,607 C1266,604.790861 1267.79086,603 1270,603 Z M1252,603 C1254.20914,603 1256,604.790861 1256,607 C1256,609.209139 1254.20914,611 1252,611 C1249.79086,611 1248,609.209139 1248,607 C1248,604.790861 1249.79086,603 1252,603 Z M1234,603 C1236.20914,603 1238,604.790861 1238,607 C1238,609.209139 1236.20914,611 1234,611 C1231.79086,611 1230,609.209139 1230,607 C1230,604.790861 1231.79086,603 1234,603 Z M1216,603 C1218.20914,603 1220,604.790861 1220,607 C1220,609.209139 1218.20914,611 1216,611 C1213.79086,611 1212,609.209139 1212,607 C1212,604.790861 1213.79086,603 1216,603 Z M1198,603 C1200.20914,603 1202,604.790861 1202,607 C1202,609.209139 1200.20914,611 1198,611 C1195.79086,611 1194,609.209139 1194,607 C1194,604.790861 1195.79086,603 1198,603 Z M1270,585 C1272.20914,585 1274,586.790861 1274,589 C1274,591.209139 1272.20914,593 1270,593 C1267.79086,593 1266,591.209139 1266,589 C1266,586.790861 1267.79086,585 1270,585 Z M1216,585 C1218.20914,585 1220,586.790861 1220,589 C1220,591.209139 1218.20914,593 1216,593 C1213.79086,593 1212,591.209139 1212,589 C1212,586.790861 1213.79086,585 1216,585 Z M1234,585 C1236.20914,585 1238,586.790861 1238,589 C1238,591.209139 1236.20914,593 1234,593 C1231.79086,593 1230,591.209139 1230,589 C1230,586.790861 1231.79086,585 1234,585 Z M1252,585 C1254.20914,585 1256,586.790861 1256,589 C1256,591.209139 1254.20914,593 1252,593 C1249.79086,593 1248,591.209139 1248,589 C1248,586.790861 1249.79086,585 1252,585 Z M1306,585 C1308.20914,585 1310,586.790861 1310,589 C1310,591.209139 1308.20914,593 1306,593 C1303.79086,593 1302,591.209139 1302,589 C1302,586.790861 1303.79086,585 1306,585 Z M1324,585 C1326.20914,585 1328,586.790861 1328,589 C1328,591.209139 1326.20914,593 1324,593 C1321.79086,593 1320,591.209139 1320,589 C1320,586.790861 1321.79086,585 1324,585 Z M1198,585 C1200.20914,585 1202,586.790861 1202,589 C1202,591.209139 1200.20914,593 1198,593 C1195.79086,593 1194,591.209139 1194,589 C1194,586.790861 1195.79086,585 1198,585 Z M1288,585 C1290.20914,585 1292,586.790861 1292,589 C1292,591.209139 1290.20914,593 1288,593 C1285.79086,593 1284,591.209139 1284,589 C1284,586.790861 1285.79086,585 1288,585 Z M1252,567 C1254.20914,567 1256,568.790861 1256,571 C1256,573.209139 1254.20914,575 1252,575 C1249.79086,575 1248,573.209139 1248,571 C1248,568.790861 1249.79086,567 1252,567 Z M1270,567 C1272.20914,567 1274,568.790861 1274,571 C1274,573.209139 1272.20914,575 1270,575 C1267.79086,575 1266,573.209139 1266,571 C1266,568.790861 1267.79086,567 1270,567 Z M1288,567 C1290.20914,567 1292,568.790861 1292,571 C1292,573.209139 1290.20914,575 1288,575 C1285.79086,575 1284,573.209139 1284,571 C1284,568.790861 1285.79086,567 1288,567 Z M1306,567 C1308.20914,567 1310,568.790861 1310,571 C1310,573.209139 1308.20914,575 1306,575 C1303.79086,575 1302,573.209139 1302,571 C1302,568.790861 1303.79086,567 1306,567 Z M1324,567 C1326.20914,567 1328,568.790861 1328,571 C1328,573.209139 1326.20914,575 1324,575 C1321.79086,575 1320,573.209139 1320,571 C1320,568.790861 1321.79086,567 1324,567 Z M1198,567 C1200.20914,567 1202,568.790861 1202,571 C1202,573.209139 1200.20914,575 1198,575 C1195.79086,575 1194,573.209139 1194,571 C1194,568.790861 1195.79086,567 1198,567 Z M1216,567 C1218.20914,567 1220,568.790861 1220,571 C1220,573.209139 1218.20914,575 1216,575 C1213.79086,575 1212,573.209139 1212,571 C1212,568.790861 1213.79086,567 1216,567 Z M1234,567 C1236.20914,567 1238,568.790861 1238,571 C1238,573.209139 1236.20914,575 1234,575 C1231.79086,575 1230,573.209139 1230,571 C1230,568.790861 1231.79086,567 1234,567 Z" id="dot"></path>
            </g>
        </g>
    </g>
</svg>