<?xml version="1.0" encoding="UTF-8"?>
<svg width="552px" height="555px" viewBox="0 0 552 555" version="1.1" xmlns="http://www.w3.org/2000/svg" xmlns:xlink="http://www.w3.org/1999/xlink">
    <!-- Generator: Sketch 62 (91390) - https://sketch.com -->
    <title>Group 15@3x</title>
    <desc>Created with Sketch.</desc>
    <defs>
        <polygon id="path-1" points="0.0028125 0 144.262815 0 144.262815 62.0808087 0.0028125 62.0808087"></polygon>
        <polygon id="path-3" points="0 0.2140625 126.151313 0.2140625 126.151313 110 0 110"></polygon>
        <polygon id="path-5" points="0.001265625 0 64.918267 0 64.918267 27.9363639 0.001265625 27.9363639"></polygon>
        <polygon id="path-7" points="0 0.096328125 56.7680906 0.096328125 56.7680906 49.5 0 49.5"></polygon>
        <filter x="-17.6%" y="-17.6%" width="135.3%" height="135.3%" filterUnits="objectBoundingBox" id="filter-9">
            <feGaussianBlur stdDeviation="29" in="SourceGraphic"></feGaussianBlur>
        </filter>
        <filter x="-13.3%" y="-13.3%" width="126.7%" height="126.7%" filterUnits="objectBoundingBox" id="filter-10">
            <feGaussianBlur stdDeviation="2" in="SourceGraphic"></feGaussianBlur>
        </filter>
    </defs>
    <g id="Page-1" stroke="none" stroke-width="1" fill="none" fill-rule="evenodd">
        <g id="Desktop-HD-Copy-3" transform="translate(-888.000000, -496.000000)">
            <g id="Group-15" transform="translate(883.000000, 527.000000)">
                <g id="Block" transform="translate(107.000000, 220.500000) rotate(34.000000) translate(-107.000000, -220.500000) translate(34.000000, 138.000000)">
                    <path d="M144.26325,13.0349375 C144.268875,13.3780625 144.19575,13.7211875 144.043875,14.0699375 L125.2395,57.5174375 L126.15075,159.684312 L144.955125,116.236812 C144.977625,116.180562 145.00575,116.124312 145.022625,116.068062 C145.07325,115.933062 145.107,115.798062 145.135125,115.663062 C145.157625,115.516812 145.1745,115.376187 145.1745,115.235562 L145.1745,115.207437 L144.26325,13.0349375 Z" id="Fill-1" fill="#E93B22"></path>
                    <g id="Group-5" transform="translate(0.000000, 0.126688)">
                        <mask id="mask-2" fill="white">
                            <use xlink:href="#path-1"></use>
                        </mask>
                        <g id="Clip-4"></g>
                        <path d="M139.165312,8.58825 C142.928437,9.797625 144.964687,11.82825 144.042187,13.94325 L125.237812,57.39075 C123.915937,60.4395 116.997187,62.49825 109.769062,62.008875 L0.0028125,54.46575 L23.5715625,-0.001125 L133.309687,7.53075 C135.525937,7.682625 137.511562,8.0595 139.165312,8.58825" id="Fill-3" fill="#FC6A55" mask="url(#mask-2)"></path>
                    </g>
                    <g id="Group-8" transform="translate(0.000000, 54.376688)">
                        <mask id="mask-4" fill="white">
                            <use xlink:href="#path-3"></use>
                        </mask>
                        <g id="Clip-7"></g>
                        <path d="M125.240063,3.1390625 C125.082563,3.5103125 124.829438,3.8703125 124.508813,4.2078125 C124.491938,4.2303125 124.469438,4.2471875 124.452563,4.2640625 C124.148813,4.5790625 123.771938,4.8771875 123.350063,5.1584375 C123.299438,5.1921875 123.254438,5.2259375 123.209438,5.2540625 C122.810063,5.5071875 122.354438,5.7378125 121.870688,5.9628125 C121.628813,6.0696875 121.364438,6.1765625 121.100063,6.2778125 C120.779438,6.4015625 120.458813,6.5196875 120.115688,6.6321875 C119.406938,6.8628125 118.653188,7.0596875 117.860063,7.2284375 C117.747563,7.2509375 117.651938,7.2790625 117.545063,7.3015625 C117.381938,7.3353125 117.196313,7.3578125 117.033188,7.3803125 C116.431313,7.4871875 115.812563,7.5884375 115.176938,7.6559375 C115.064438,7.6671875 114.957563,7.6728125 114.845063,7.6840625 C114.102563,7.7571875 113.337563,7.8021875 112.555688,7.8190625 C112.488188,7.8246875 112.420688,7.8246875 112.353188,7.8246875 C111.503813,7.8359375 110.637563,7.8190625 109.771313,7.7571875 L-0.000562499999,0.2140625 L0.9050625,102.380937 L110.682563,109.929687 C110.744438,109.929687 110.806313,109.935312 110.862563,109.940937 C111.183188,109.957812 111.503813,109.974687 111.818813,109.985937 C112.145063,109.997187 112.471313,110.002812 112.803188,110.002812 C112.955063,110.002812 113.106938,109.997187 113.258813,109.991562 C113.331938,109.991562 113.399438,109.991562 113.466938,109.991562 C113.596313,109.985937 113.720063,109.985937 113.843813,109.985937 C114.226313,109.969062 114.608813,109.952187 114.985688,109.924062 C115.250063,109.907187 115.503188,109.879062 115.750688,109.850937 C115.868813,109.845312 115.981313,109.834062 116.088188,109.822812 C116.183813,109.811562 116.273813,109.805937 116.369438,109.794687 C116.915063,109.732812 117.426938,109.642812 117.944438,109.552812 C118.107563,109.524687 118.287563,109.502187 118.450688,109.474062 C118.473188,109.468437 118.495688,109.468437 118.512563,109.462812 C118.602563,109.445937 118.681313,109.417812 118.771313,109.395312 C119.564438,109.226562 120.318188,109.029687 121.021313,108.804687 C121.122563,108.770937 121.235063,108.754062 121.330688,108.720312 C121.578188,108.635937 121.786313,108.534687 122.016938,108.444687 C122.281313,108.343437 122.540063,108.242187 122.781938,108.135312 C122.860688,108.095937 122.961938,108.062187 123.040688,108.022812 C123.361313,107.870937 123.670688,107.707812 123.951938,107.539062 C124.008188,107.499687 124.058813,107.460312 124.120688,107.426562 C124.171313,107.392812 124.210688,107.359062 124.261313,107.325312 C124.373813,107.252187 124.491938,107.184687 124.598813,107.105937 C124.773188,106.970937 124.936313,106.841562 125.093813,106.700937 C125.189438,106.616562 125.279438,106.520937 125.363813,106.430937 C125.380688,106.414062 125.397563,106.397187 125.414438,106.380312 C125.436938,106.357812 125.465063,106.335312 125.487563,106.312812 C125.594438,106.189062 125.701313,106.059687 125.796938,105.924687 C125.886938,105.800937 125.971313,105.671562 126.044438,105.536562 C126.078188,105.457812 126.117563,105.384687 126.151313,105.305937 L125.240063,3.1390625 Z" id="Fill-6" fill="#FF5A42" mask="url(#mask-4)"></path>
                    </g>
                </g>
                <g id="BLock" transform="translate(353.000000, 422.500000) rotate(-25.000000) translate(-353.000000, -422.500000) translate(320.000000, 385.000000)">
                    <path d="M64.9184625,5.86572187 C64.9209937,6.02012812 64.8880875,6.17453437 64.8197437,6.33147187 L56.357775,25.8828469 L56.7678375,71.8579406 L65.2298062,52.3065656 C65.2399312,52.2812531 65.2525875,52.2559406 65.2601812,52.2306281 C65.2829625,52.1698781 65.29815,52.1091281 65.3108062,52.0483781 C65.3209312,51.9825656 65.328525,51.9192844 65.328525,51.8560031 L65.328525,51.8433469 L64.9184625,5.86572187 Z" id="Fill-1" fill="#4D3DFC"></path>
                    <g id="Group-5" transform="translate(0.000000, 0.057009)">
                        <mask id="mask-6" fill="white">
                            <use xlink:href="#path-5"></use>
                        </mask>
                        <g id="Clip-4"></g>
                        <path d="M62.6243906,3.8647125 C64.3177969,4.40893125 65.2341094,5.3227125 64.8189844,6.2744625 L56.3570156,25.8258375 C55.7621719,27.197775 52.6487344,28.1242125 49.3960781,27.9039937 L0.001265625,24.5095875 L10.6072031,-0.00050625 L59.9893594,3.3888375 C60.9866719,3.45718125 61.8802031,3.626775 62.6243906,3.8647125" id="Fill-3" fill="#675BF5" mask="url(#mask-6)"></path>
                    </g>
                    <g id="Group-8" transform="translate(0.000000, 24.469509)">
                        <mask id="mask-8" fill="white">
                            <use xlink:href="#path-7"></use>
                        </mask>
                        <g id="Clip-7"></g>
                        <path d="M56.3580281,1.41257812 C56.2871531,1.57964062 56.1732469,1.74164062 56.0289656,1.89351562 C56.0213719,1.90364062 56.0112469,1.91123437 56.0036531,1.91882812 C55.8669656,2.06057812 55.6973719,2.19473437 55.5075281,2.32129687 C55.4847469,2.33648437 55.4644969,2.35167187 55.4442469,2.36432812 C55.2645281,2.47823437 55.0594969,2.58201562 54.8418094,2.68326562 C54.7329656,2.73135937 54.6139969,2.77945312 54.4950281,2.82501562 C54.3507469,2.88070312 54.2064656,2.93385937 54.0520594,2.98448437 C53.7331219,3.08826562 53.3939344,3.17685937 53.0370281,3.25279687 C52.9864031,3.26292187 52.9433719,3.27557812 52.8952781,3.28570312 C52.8218719,3.30089062 52.7383406,3.31101562 52.6649344,3.32114062 C52.3940906,3.36923437 52.1156531,3.41479687 51.8296219,3.44517187 C51.7789969,3.45023437 51.7309031,3.45276562 51.6802781,3.45782812 C51.3461531,3.49073437 51.0019031,3.51098437 50.6500594,3.51857812 C50.6196844,3.52110937 50.5893094,3.52110937 50.5589344,3.52110937 C50.1767156,3.52617187 49.7869031,3.51857812 49.3970906,3.49073437 L-0.000253125,0.096328125 L0.407278125,46.0714219 L49.8071531,49.4683594 C49.8349969,49.4683594 49.8628406,49.4708906 49.8881531,49.4734219 C50.0324344,49.4810156 50.1767156,49.4886094 50.3184656,49.4936719 C50.4652781,49.4987344 50.6120906,49.5012656 50.7614344,49.5012656 C50.8297781,49.5012656 50.8981219,49.4987344 50.9664656,49.4962031 C50.9993719,49.4962031 51.0297469,49.4962031 51.0601219,49.4962031 C51.1183406,49.4936719 51.1740281,49.4936719 51.2297156,49.4936719 C51.4018406,49.4860781 51.5739656,49.4784844 51.7435594,49.4658281 C51.8625281,49.4582344 51.9764344,49.4455781 52.0878094,49.4329219 C52.1409656,49.4303906 52.1915906,49.4253281 52.2396844,49.4202656 C52.2827156,49.4152031 52.3232156,49.4126719 52.3662469,49.4076094 C52.6117781,49.3797656 52.8421219,49.3392656 53.0749969,49.2987656 C53.1484031,49.2861094 53.2294031,49.2759844 53.3028094,49.2633281 C53.3129344,49.2607969 53.3230594,49.2607969 53.3306531,49.2582656 C53.3711531,49.2506719 53.4065906,49.2380156 53.4470906,49.2278906 C53.8039969,49.1519531 54.1431844,49.0633594 54.4595906,48.9621094 C54.5051531,48.9469219 54.5557781,48.9393281 54.5988094,48.9241406 C54.7101844,48.8861719 54.8038406,48.8406094 54.9076219,48.8001094 C55.0265906,48.7545469 55.1430281,48.7089844 55.2518719,48.6608906 C55.2873094,48.6431719 55.3328719,48.6279844 55.3683094,48.6102656 C55.5125906,48.5419219 55.6518094,48.4685156 55.7783719,48.3925781 C55.8036844,48.3748594 55.8264656,48.3571406 55.8543094,48.3419531 C55.8770906,48.3267656 55.8948094,48.3115781 55.9175906,48.2963906 C55.9682156,48.2634844 56.0213719,48.2331094 56.0694656,48.1976719 C56.1479344,48.1369219 56.2213406,48.0787031 56.2922156,48.0154219 C56.3352469,47.9774531 56.3757469,47.9344219 56.4137156,47.8939219 C56.4213094,47.8863281 56.4289031,47.8787344 56.4364969,47.8711406 C56.4466219,47.8610156 56.4592781,47.8508906 56.4694031,47.8407656 C56.5174969,47.7850781 56.5655906,47.7268594 56.6086219,47.6661094 C56.6491219,47.6104219 56.6870906,47.5522031 56.7199969,47.4914531 C56.7351844,47.4560156 56.7529031,47.4231094 56.7680906,47.3876719 L56.3580281,1.41257812 Z" id="Fill-6" fill="#4537E2" mask="url(#mask-8)"></path>
                    </g>
                </g>
                <circle id="blurry" fill="#4537E2" filter="url(#filter-9)" cx="723.5" cy="246.5" r="246.5"></circle>
                <circle id="small-blurry" fill="#4537E2" filter="url(#filter-10)" cx="434.5" cy="133.5" r="22.5"></circle>
            </g>
        </g>
    </g>
</svg>