<?xml version="1.0" encoding="UTF-8"?>
<svg width="218px" height="302px" viewBox="0 0 218 302" version="1.1" xmlns="http://www.w3.org/2000/svg" xmlns:xlink="http://www.w3.org/1999/xlink">
    <!-- Generator: sketchtool 61.2 (101010) - https://sketch.com -->
    <title>6D1E4AEC-44BB-4EDC-BE8A-D7B12D12B757</title>
    <desc>Created with sketchtool.</desc>
    <defs>
        <linearGradient x1="61.9935027%" y1="0%" x2="37.5072288%" y2="64.6867683%" id="linearGradient-1">
            <stop stop-color="#7B68F3" offset="0%"></stop>
            <stop stop-color="#4537E2" offset="100%"></stop>
        </linearGradient>
        <linearGradient x1="54.0148923%" y1="113.156324%" x2="21.1186662%" y2="-30.2229043%" id="linearGradient-2">
            <stop stop-color="#4537E2" offset="0%"></stop>
            <stop stop-color="#DBF0FC" offset="100%"></stop>
        </linearGradient>
        <linearGradient x1="28.6221221%" y1="10.3140496%" x2="56.3222355%" y2="50%" id="linearGradient-3">
            <stop stop-color="#FFDC3E" offset="0%"></stop>
            <stop stop-color="#FDB71D" offset="100%"></stop>
        </linearGradient>
    </defs>
    <g id="Page-1" stroke="none" stroke-width="1" fill="none" fill-rule="evenodd">
        <g id="Draft-Rev-1" transform="translate(0.000000, -4386.000000)">
            <g id="Nurse-cute" transform="translate(-75.000000, 4382.000000)">
                <g id="Group" transform="translate(24.287645, 206.667828)">
                    <path d="M152.720382,17.4624414 L151.442533,12.7666004 C151.145043,11.7230749 150.783328,10.3730341 150.357376,8.71643749 C149.931425,7.05984085 149.650842,5.87284846 149.515619,5.15542472 C149.393919,5.82067219 149.153902,6.91635747 148.795562,8.44251343 C148.437222,9.96866939 147.6428,12.975282 146.412273,17.4624414 L152.720382,17.4624414 Z M178.39853,18.7537977 L178.39853,29.1629119 L170.386624,29.1629119 L170.386624,0.557413721 L180.102327,0.557413721 C188.161601,0.557413721 192.191178,3.37489016 192.191178,9.00992755 C192.191178,12.3231208 190.514441,14.8862418 187.160918,16.6993672 L195.801606,29.1629119 L186.714685,29.1629119 L180.42686,18.7537977 L178.39853,18.7537977 Z M178.39853,12.9426944 L179.899494,12.9426944 C182.698604,12.9426944 184.098139,11.7491801 184.098139,9.36211563 C184.098139,7.39246135 182.725649,6.40764899 179.980627,6.40764899 L178.39853,6.40764899 L178.39853,12.9426944 Z" id="KIDSCARE-Copy" fill="#988EFB"></path>
                    <polygon id="Path" fill="#FF687B" points="218.680658 29.1629119 201.074748 29.1629119 201.074748 0.557413721 218.680658 0.557413721 218.680658 6.75983707 209.086654 6.75983707 209.086654 11.260018 217.970742 11.260018 217.970742 17.4624414 209.086654 17.4624414 209.086654 22.8626586 218.680658 22.8626586"></polygon>
                    <polygon id="Path" fill="#C0D8F2" points="155.844011 29.1629119 154.383613 23.8018268 144.749042 23.8018268 143.248078 29.1629119 134.445123 29.1629119 144.12026 0.440017695 154.809562 0.440017695 164.606399 29.1629119"></polygon>
                    <path d="M121.322341,6.48591301 C119.415701,6.48591301 117.928273,7.23919664 116.860014,8.7457865 C115.791755,10.2523764 115.257633,12.329613 115.257633,14.9775588 C115.257633,20.4821556 117.427925,23.2344126 121.768574,23.2344126 C123.080234,23.2344126 124.351309,23.0583204 125.581836,22.7061305 C126.812362,22.3539407 128.049632,21.9300148 129.293681,21.4343402 L129.293681,27.9693857 C126.819105,29.0259552 124.020037,29.554232 120.896392,29.554232 C116.42052,29.554232 112.989295,28.3020203 110.602614,25.7975592 C108.215933,23.2930981 107.022611,19.6734235 107.022611,14.9384268 C107.022611,11.9774234 107.600679,9.37517085 108.756833,7.13159115 C109.912987,4.88801144 111.576202,3.16295932 113.746527,1.95638302 C115.916851,0.74980673 118.469142,0.146527632 121.403475,0.146527632 C124.608253,0.146527632 127.671002,0.81828706 130.591812,2.16182607 L128.137532,8.24685339 C127.042228,7.7511788 125.946941,7.33377489 124.851637,6.99462912 C123.756333,6.65548335 122.579913,6.48591301 121.322341,6.48591301 Z" id="Path" fill="#F8E71C"></path>
                    <path d="M100.95842,20.475606 C100.95842,22.2495993 100.491908,23.8246469 99.5588714,25.2007961 C98.6258347,26.5769452 97.2803889,27.6465428 95.5224935,28.4096208 C93.7645982,29.1726987 91.7024827,29.554232 89.3360852,29.554232 C87.3618335,29.554232 85.7053801,29.4205323 84.3666752,29.1531289 C83.0279703,28.8857255 81.6351972,28.4194071 80.1883142,27.7541596 L80.1883142,20.8669261 C81.7163309,21.6234821 83.305174,22.2137173 84.9548911,22.6376495 C86.6046082,23.0615817 88.1190799,23.2735446 89.4983516,23.2735446 C90.6883142,23.2735446 91.560485,23.0746256 92.1148981,22.6767815 C92.6693113,22.2789374 92.9465137,21.7669655 92.9465137,21.1408502 C92.9465137,20.7495281 92.8349566,20.4071265 92.6118391,20.113635 C92.3887216,19.8201434 92.0303868,19.5233953 91.5368239,19.2233818 C91.043261,18.9233682 89.7282398,18.3103062 87.5917209,17.3841774 C85.658036,16.5363129 84.2077942,15.714549 83.2409517,14.9188608 C82.2741093,14.1231727 81.5574397,13.2101016 81.0909213,12.1796202 C80.6244029,11.1491389 80.3911472,9.9295368 80.3911472,8.52077745 C80.3911472,5.8858757 81.3850193,3.8314658 83.3727932,2.35748611 C85.3605672,0.883506422 88.0920251,0.146527632 91.5672489,0.146527632 C94.6368045,0.146527632 97.7671635,0.831330932 100.95842,2.20095808 L98.5041395,8.16858937 C95.7320738,6.94244697 93.3386677,6.32938497 91.3238492,6.32938497 C90.2826343,6.32938497 89.5253984,6.50547725 89.0521189,6.85766709 C88.5788394,7.20985692 88.3422032,7.64682665 88.3422032,8.16858937 C88.3422032,8.7294843 88.6430692,9.23167338 89.2448103,9.6751717 C89.8465514,10.11867 91.4793412,10.9273901 94.1432287,12.1013562 C96.6989381,13.210102 98.4737096,14.4003554 99.4675966,15.672152 C100.461484,16.9439486 100.95842,18.545084 100.95842,20.475606 Z" id="Path" fill="#FFCCD2"></path>
                    <path d="M73.6778904,14.2536167 C73.6778904,19.0277456 72.315542,22.7061176 69.5908043,25.2888431 C66.8660665,27.8715686 63.0359405,29.1629119 58.1003114,29.1629119 L48.5063076,29.1629119 L48.5063076,0.557413721 L58.7696605,0.557413721 C63.5295001,0.557413721 67.2041223,1.73136224 69.7936373,4.07929448 C72.3831523,6.42722673 73.6778904,9.81863355 73.6778904,14.2536167 Z" id="Path" fill="#6DCFF6"></path>
                </g>
                <path d="M227.214024,128.293014 C228.592764,207.280982 139.693738,248.139289 169.492818,260.883429 C199.291899,273.627568 297.203164,184.418592 309.974198,107.953755 C322.745233,31.4889179 293.474292,15.0983854 264.505681,23.6157485 C235.53707,32.1331116 225.835284,49.3050465 227.214024,128.293014 Z" id="Path-13-Copy-2" fill="url(#linearGradient-1)" transform="translate(238.215958, 141.844546) scale(-1, 1) rotate(-216.000000) translate(-238.215958, -141.844546) "></path>
                <circle id="Oval" fill="url(#linearGradient-2)" cx="138.708031" cy="167.526785" r="138.330001"></circle>
                <path d="M213.275997,133 C212.679435,140.591806 206.129832,146.571982 198.137999,146.571982 C190.146165,146.571982 183.596562,140.591806 183,133 Z" id="Combined-Shape" fill="#FF687B" transform="translate(198.137999, 139.785991) rotate(14.000000) translate(-198.137999, -139.785991) "></path>
                <circle id="Oval-12" fill="#3A4358" cx="230.352" cy="121.352" r="8.35200005"></circle>
                <circle id="Oval-12-Copy" fill="#3A4358" cx="176.352" cy="104.352" r="8.35200005"></circle>
                <path d="M159.18939,43.6212852 L164.331085,11.651516 C164.605751,9.94370646 166.212866,8.78191474 167.920676,9.05658156 C168.74637,9.18937792 169.484661,9.64688193 169.971082,10.3271768 L174.556432,16.7401233 C175.562512,18.1471983 177.518759,18.4722696 178.925834,17.4661904 C178.962122,17.4402444 178.997851,17.4135261 179.032997,17.3860537 L192.288279,7.02489076 C193.651096,5.95962746 195.619444,6.20084216 196.684707,7.56365887 C196.939524,7.88965245 197.127222,8.26290607 197.236956,8.66185707 L201.261365,23.2930097 C201.701853,24.8944489 203.315856,25.8735582 204.939652,25.524384 L213.103446,23.7688768 C214.794545,23.4052301 216.460246,24.4813429 216.823893,26.1724421 C216.977939,26.8888198 216.875932,27.6365339 216.535621,28.2854686 L201.102466,57.7147919 L201.102466,57.7147919 C193.055409,56.9355324 185.56547,55.3803027 178.63265,53.0491029 C171.699829,50.7179031 165.218742,47.5752972 159.18939,43.6212852 Z" id="Path-3" fill="url(#linearGradient-3)" transform="translate(187.899390, 32.136792) rotate(-7.000000) translate(-187.899390, -32.136792) "></path>
            </g>
        </g>
    </g>
</svg>