<svg width="147" height="205" xmlns="http://www.w3.org/2000/svg"><defs><linearGradient x1="28.622%" y1="10.14%" x2="56.322%" y2="50%" id="b"><stop stop-color="#FFDC3E" offset="0%"/><stop stop-color="#FDB71D" offset="100%"/></linearGradient><filter x="-7.7%" y="-12.1%" width="119.2%" height="120.7%" filterUnits="objectBoundingBox" id="a"><feGaussianBlur stdDeviation="5" in="SourceGraphic"/></filter></defs><path d="M1305 1759.787l20.521-127.875a3 3 0 015.405-1.267l31.196 43.726a3 3 0 004.292.62l60.656-47.516a3 3 0 014.743 1.568l18.726 68.229a3 3 0 003.525 2.138l51.028-10.997a3 3 0 013.29 4.324L1448.068 1808c-27.468-2.666-53.035-7.986-76.7-15.96-23.664-7.976-45.787-18.726-66.368-32.253z" filter="url(#a)" transform="translate(-1293 -1615)" fill="url(#b)" fill-rule="evenodd"/></svg>