<svg width="133" height="98" xmlns="http://www.w3.org/2000/svg"><path d="M130 90a4 4 0 110 8 4 4 0 010-8zm-18 0a4 4 0 110 8 4 4 0 010-8zm-18 0a4 4 0 110 8 4 4 0 010-8zm-18 0a4 4 0 110 8 4 4 0 010-8zm-18 0a4 4 0 110 8 4 4 0 010-8zm-18 0a4 4 0 110 8 4 4 0 010-8zm-18 0a4 4 0 110 8 4 4 0 010-8zM4 90a4 4 0 110 8 4 4 0 010-8zm126-18a4 4 0 110 8 4 4 0 010-8zm-18 0a4 4 0 110 8 4 4 0 010-8zm-18 0a4 4 0 110 8 4 4 0 010-8zm-18 0a4 4 0 110 8 4 4 0 010-8zm-18 0a4 4 0 110 8 4 4 0 010-8zm-18 0a4 4 0 110 8 4 4 0 010-8zm-18 0a4 4 0 110 8 4 4 0 010-8zM4 72a4 4 0 110 8 4 4 0 010-8zm108-18a4 4 0 110 8 4 4 0 010-8zm-18 0a4 4 0 110 8 4 4 0 010-8zm-18 0a4 4 0 110 8 4 4 0 010-8zm-18 0a4 4 0 110 8 4 4 0 010-8zm-18 0a4 4 0 110 8 4 4 0 010-8zm-18 0a4 4 0 110 8 4 4 0 010-8zM4 54a4 4 0 110 8 4 4 0 010-8zm126 0a4 4 0 110 8 4 4 0 010-8zm0-18a4 4 0 110 8 4 4 0 010-8zm-18 0a4 4 0 110 8 4 4 0 010-8zm-18 0a4 4 0 110 8 4 4 0 010-8zm-18 0a4 4 0 110 8 4 4 0 010-8zm-18 0a4 4 0 110 8 4 4 0 010-8zm-18 0a4 4 0 110 8 4 4 0 010-8zm-18 0a4 4 0 110 8 4 4 0 010-8zM4 36a4 4 0 110 8 4 4 0 010-8zm72-18a4 4 0 110 8 4 4 0 010-8zm-54 0a4 4 0 110 8 4 4 0 010-8zm18 0a4 4 0 110 8 4 4 0 010-8zm18 0a4 4 0 110 8 4 4 0 010-8zm54 0a4 4 0 110 8 4 4 0 010-8zm18 0a4 4 0 110 8 4 4 0 010-8zM4 18a4 4 0 110 8 4 4 0 010-8zm90 0a4 4 0 110 8 4 4 0 010-8zM58 0a4 4 0 110 8 4 4 0 010-8zm18 0a4 4 0 110 8 4 4 0 010-8zm18 0a4 4 0 110 8 4 4 0 010-8zm18 0a4 4 0 110 8 4 4 0 010-8zm18 0a4 4 0 110 8 4 4 0 010-8zM4 0a4 4 0 110 8 4 4 0 010-8zm18 0a4 4 0 110 8 4 4 0 010-8zm18 0a4 4 0 110 8 4 4 0 010-8z" fill="#DBF0FC" fill-rule="evenodd"/></svg>